<?xml version="1.0" encoding="UTF-8"?>
<!DOCTYPE svg PUBLIC "-//W3C//DTD SVG 1.1//EN" "http://www.w3.org/Graphics/SVG/1.1/DTD/svg11.dtd">
<svg xmlns="http://www.w3.org/2000/svg" xml:space="preserve" width="297mm" height="210mm" version="1.1" style="shape-rendering:geometricPrecision; text-rendering:geometricPrecision; image-rendering:optimizeQuality; fill-rule:evenodd; clip-rule:evenodd" viewBox="0 0 29700 21000" xmlns:xlink="http://www.w3.org/1999/xlink">
	<defs>
		<style type="text/css"><![CDATA[
    .str1 {stroke:black;stroke-width:20;stroke-opacity:0.600000}
    .str0 {stroke:#8C8C8C;stroke-width:20;stroke-linecap:square}
    .fil6 {fill:none;fill-rule:nonzero}
    .fil12 {fill:#004AFF;fill-opacity:0.600000}
    .fil8 {fill:#28FFCC;fill-opacity:0.600000}
    .fil9 {fill:#7DFF78;fill-opacity:0.600000}
    .fil11 {fill:#CCFF28;fill-opacity:0.600000}
    .fil10 {fill:#FF6600;fill-opacity:0.600000}
    .fil7 {fill:#FFC500;fill-opacity:0.600000}
    .fil2 {fill:url(#id0)}
    .fil4 {fill:url(#id1)}
    .fil3 {fill:url(#id2)}
    .fil5 {fill:url(#id3)}
    .fil1 {fill:url(#id4)}
    .fil0 {fill:url(#id5)}
   ]]></style>
		<linearGradient id="id0" gradientUnits="userSpaceOnUse" x1="12228.2" y1="5276.22" x2="22788.6" y2="15712.4">
			<stop offset="0" style="stop-color:#F26D58"/>
			<stop offset="1" style="stop-color:#F9A03C"/>
		</linearGradient>
		<linearGradient id="id1" gradientUnits="userSpaceOnUse" x1="15413.2" y1="5468.73" x2="22835.2" y2="12531.8">
			<stop offset="0" style="stop-color:#B84E51"/>
			<stop offset="1" style="stop-color:#F68E48"/>
		</linearGradient>
		<linearGradient id="id2" gradientUnits="userSpaceOnUse" x1="16096.1" y1="12261.3" x2="17808" y2="13973">
			<stop offset="0" style="stop-color:#F9A03C"/>
			<stop offset="1" style="stop-color:#F7974E"/>
		</linearGradient>
		<linearGradient id="id3" gradientUnits="userSpaceOnUse" xlink:href="#id2" x1="13516.9" y1="11565.3" x2="17984.8" y2="16033.4">
  </linearGradient>
		<linearGradient id="id4" gradientUnits="userSpaceOnUse" xlink:href="#id1" x1="15973.6" y1="7445.01" x2="22274.9" y2="13543">
  </linearGradient>
		<linearGradient id="id5" gradientUnits="userSpaceOnUse" xlink:href="#id0" x1="13942.2" y1="9471" x2="16025.3" y2="11529.6">
  </linearGradient>
	</defs>
	<g id="Layer_x0020_1">
		<metadata id="Layer"/>
		<g id="_714275984">
			<path class="fil0" d="M12324 5180l0 2276c1709,0 3039,1394 3044,3044 0,453 -101,891 -281,1277l1671 1646c572,-855 887,-1820 887,-2924 -7,-2938 -2349,-5314 -5320,-5321zm4434 8244l-1671 -1646c-481,1034 -1550,1767 -2763,1767l0 2276c1868,0 3467,-950 4434,-2397z"/>
			<path class="fil1" d="M19416 5179l-3864 0c944,567 1725,1370 2258,2326l1606 0c505,0 916,404 916,900 0,497 -411,900 -916,900l-361 0 3628 3515c9,-95 14,-191 14,-289 0,-784 -286,-1504 -761,-2064 475,-560 761,-1279 761,-2063 0,-1779 -1472,-3227 -3281,-3227zm3277 7498c-79,1740 -1518,3132 -3277,3132l-238 0 -1757 -1731c145,-204 279,-415 398,-635l1596 0c505,0 916,-411 916,-916 0,-505 -411,-916 -916,-916l-944 0c72,-380 111,-773 111,-1174 0,-407 -29,-748 -104,-1135l576 3 3628 3515c4,-48 8,-96 10,-144zm-3515 3132l-3599 0c724,-447 1351,-1038 1842,-1731l1757 1731z"/>
			<path class="fil2" d="M22693 12677c-79,1740 -1518,3132 -3277,3132l-238 0 -1757 -1731c145,-204 279,-415 398,-635l1596 0c505,0 916,-411 916,-916 0,-505 -411,-916 -916,-916l-944 0c72,-380 111,-773 111,-1174 0,-407 -29,-748 -104,-1135l576 3 3628 3515c4,-48 8,-96 10,-144zm-10370 -7497l0 2276c1709,0 3039,1394 3044,3044 0,453 -101,891 -281,1277l1671 1646c572,-855 887,-1820 887,-2924 -7,-2938 -2349,-5314 -5320,-5321z"/>
			<path class="fil3" d="M16739 13452c6,-9 13,-19 19,-28 7,-11 14,-21 21,-32 901,-1369 -554,818 -40,59z"/>
			<path class="fil4" d="M19416 5179l-3864 0c944,567 1725,1370 2258,2326l1606 0c505,0 916,404 916,900 0,497 -411,900 -916,900l-361 0 3628 3515c9,-95 14,-191 14,-289 0,-784 -286,-1504 -761,-2064 475,-560 761,-1279 761,-2063 0,-1779 -1472,-3227 -3281,-3227z"/>
			<path class="fil5" d="M19178 15809l-3599 0c724,-447 1351,-1038 1842,-1731l1757 1731zm-2421 -2385l-1671 -1646c-481,1034 -1550,1767 -2763,1767l0 2276c1868,0 3467,-950 4434,-2397z"/>
			<path class="fil6 str0" d="M12324 11269c204,0 399,-81 543,-225 144,-144 225,-340 225,-543 0,-204 -80,-399 -225,-543 -144,-144 -340,-225 -544,-225 -204,0 -400,81 -544,225 -144,144 -225,340 -225,543 0,204 81,399 225,543 144,144 339,225 543,225zm0 1138c506,0 990,-201 1348,-559 357,-357 558,-842 558,-1348 0,-506 -200,-991 -558,-1348 -358,-357 -843,-558 -1348,-558 -506,0 -991,201 -1348,558 -358,357 -558,843 -558,1348 0,505 201,990 558,1348 357,358 842,559 1348,559zm0 1138c807,0 1582,-321 2153,-892 571,-571 892,-1345 892,-2152 0,-807 -320,-1582 -891,-2153 -571,-571 -1346,-891 -2153,-891 -807,0 -1582,321 -2153,891 -571,571 -891,1346 -891,2153 0,807 321,1582 892,2152 571,571 1345,892 2153,892zm0 1138c1109,0 2173,-441 2957,-1225 784,-784 1225,-1848 1225,-2957 0,-1109 -440,-2174 -1225,-2958 -784,-784 -1849,-1225 -2958,-1225 -1109,0 -2173,441 -2958,1225 -785,784 -1225,1849 -1225,2958 0,1109 441,2173 1225,2957 784,784 1848,1225 2957,1225zm0 1138c1411,0 2764,-561 3762,-1559 998,-998 1558,-2351 1558,-3762 0,-1412 -561,-2765 -1558,-3763 -998,-997 -2351,-1558 -3762,-1558 -1411,0 -2764,561 -3762,1558 -998,998 -1558,2351 -1558,3763 0,1411 561,2764 1558,3762 998,998 2351,1559 3762,1559zm-3762 -9083l7524 7525m0 -7525l-7524 7525m-1558 -3762l10641 0m-5320 -5321l0 10641"/>
			<path class="fil7 str1" d="M12324 10500l-3799 -1751c-325,705 -479,1508 -316,2500l4115 -750z"/>
			<path class="fil8 str1" d="M12324 10500l-2115 975c52,113 113,221 182,324l1933 -1299z"/>
			<path class="fil9 str1" d="M12324 10500l481 2875c-379,63 -766,51 -1140,-35l659 -2840z"/>
			<path class="fil10 str1" d="M12324 10500l-1030 -4653c-728,161 -1408,491 -1986,963l3016 3690z"/>
			<path class="fil11 str1" d="M12322 10498l2226 -2773c-289,-232 -612,-417 -958,-549l-1268 3322z"/>
			<path class="fil12 str1" d="M12324 10500l1156 -415c43,118 67,243 71,368l-1228 47z"/>
			<path class="fil10 str1" d="M14856 14514l-2534 -4016 3382 3329c-256,260 -539,491 -848,686z"/>
		</g>
	</g>
</svg>
